<?xml version="1.0" encoding="UTF-8"?>
<!DOCTYPE svg PUBLIC "-//W3C//DTD SVG 1.1//EN" "http://www.w3.org/Graphics/SVG/1.1/DTD/svg11.dtd">
<svg xmlns="http://www.w3.org/2000/svg" version="1.1" width="200px" height="200px" style="shape-rendering:geometricPrecision; text-rendering:geometricPrecision; image-rendering:optimizeQuality; fill-rule:evenodd; clip-rule:evenodd" xmlns:xlink="http://www.w3.org/1999/xlink">
<g><path style="opacity:0.947" fill="#00b6ff" d="M 85.5,47.5 C 91.1937,56.8507 96.8604,66.184 102.5,75.5C 100.5,75.5 98.5,75.5 96.5,75.5C 91.1667,66.5 85.8333,57.5 80.5,48.5C 82.0418,47.6993 83.7085,47.366 85.5,47.5 Z"/></g>
<g><path style="opacity:0.964" fill="#00c2ff" d="M 85.5,47.5 C 87.5,47.5 89.5,47.5 91.5,47.5C 97.1396,56.816 102.806,66.1493 108.5,75.5C 106.5,75.5 104.5,75.5 102.5,75.5C 96.8604,66.184 91.1937,56.8507 85.5,47.5 Z"/></g>
<g><path style="opacity:0.958" fill="#00cfff" d="M 91.5,47.5 C 93.8333,47.5 96.1667,47.5 98.5,47.5C 104.14,56.816 109.806,66.1493 115.5,75.5C 113.167,75.5 110.833,75.5 108.5,75.5C 102.806,66.1493 97.1396,56.816 91.5,47.5 Z"/></g>
<g><path style="opacity:0.972" fill="#07e1ff" d="M 98.5,47.5 C 110.833,47.5 123.167,47.5 135.5,47.5C 137.631,63.2669 130.965,72.6002 115.5,75.5C 109.806,66.1493 104.14,56.816 98.5,47.5 Z"/></g>
<g><path style="opacity:0.951" fill="#00a7ff" d="M 80.5,48.5 C 85.8333,57.5 91.1667,66.5 96.5,75.5C 94.8333,75.5 93.1667,75.5 91.5,75.5C 86.2371,67.3047 81.2371,58.9713 76.5,50.5C 77.5137,49.3263 78.847,48.6596 80.5,48.5 Z"/></g>
<g><path style="opacity:0.936" fill="#0197ff" d="M 76.5,50.5 C 81.2371,58.9713 86.2371,67.3047 91.5,75.5C 87.5,75.5 83.5,75.5 79.5,75.5C 75.8603,69.5174 72.1936,63.5174 68.5,57.5C 70.368,54.2358 73.0347,51.9025 76.5,50.5 Z"/></g>
<g><path style="opacity:0.868" fill="#007fff" d="M 68.5,57.5 C 72.1936,63.5174 75.8603,69.5174 79.5,75.5C 74.1667,75.5 68.8333,75.5 63.5,75.5C 62.7727,68.7003 64.4394,62.7003 68.5,57.5 Z"/></g>
<g><path style="opacity:0.841" fill="#1274ff" d="M 52.5,70.5 C 61.8176,70.6546 63.8176,74.488 58.5,82C 49.0959,82.141 47.0959,78.3076 52.5,70.5 Z"/></g>
<g><path style="opacity:0.965" fill="#0973ff" d="M 76.5,80.5 C 80.7564,88.6871 85.7564,96.3537 91.5,103.5C 91.5,112.5 91.5,121.5 91.5,130.5C 77.9413,132.477 68.7746,127.144 64,114.5C 63.5001,102.838 63.3335,91.1714 63.5,79.5C 68.0323,79.1818 72.3656,79.5151 76.5,80.5 Z"/></g>
<g><path style="opacity:0.958" fill="#2be0ff" d="M 122.5,80.5 C 126.634,79.5151 130.968,79.1818 135.5,79.5C 135.828,91.6783 135.495,103.678 134.5,115.5C 134.5,113.167 134.5,110.833 134.5,108.5C 134.665,104.818 134.499,101.152 134,97.5C 130.304,91.6558 126.47,85.9891 122.5,80.5 Z"/></g>
<g><path style="opacity:0.947" fill="#0080ff" d="M 76.5,80.5 C 87.4183,84.1195 92.4183,91.7862 91.5,103.5C 85.7564,96.3537 80.7564,88.6871 76.5,80.5 Z"/></g>
<g><path style="opacity:0.982" fill="#00d3ff" d="M 122.5,80.5 C 126.47,85.9891 130.304,91.6558 134,97.5C 134.499,101.152 134.665,104.818 134.5,108.5C 128.349,100.212 122.683,91.5451 117.5,82.5C 119.05,81.5592 120.716,80.8925 122.5,80.5 Z"/></g>
<g><path style="opacity:0.964" fill="#00c6ff" d="M 117.5,82.5 C 122.683,91.5451 128.349,100.212 134.5,108.5C 134.5,110.833 134.5,113.167 134.5,115.5C 134.737,116.791 134.404,117.791 133.5,118.5C 126.833,107.833 120.167,97.1667 113.5,86.5C 114.5,84.8333 115.833,83.5 117.5,82.5 Z"/></g>
<g><path style="opacity:0.969" fill="#00baff" d="M 113.5,86.5 C 120.167,97.1667 126.833,107.833 133.5,118.5C 133.267,120.062 132.6,121.395 131.5,122.5C 124.016,112.212 117.016,101.546 110.5,90.5C 110.738,88.5956 111.738,87.2623 113.5,86.5 Z"/></g>
<g><path style="opacity:0.964" fill="#00adff" d="M 110.5,90.5 C 117.016,101.546 124.016,112.212 131.5,122.5C 130.5,124.167 129.167,125.5 127.5,126.5C 121.192,116.205 114.526,106.205 107.5,96.5C 108.13,94.2504 109.13,92.2504 110.5,90.5 Z"/></g>
<g><path style="opacity:0.972" fill="#009fff" d="M 107.5,96.5 C 114.526,106.205 121.192,116.205 127.5,126.5C 125.287,127.773 122.954,128.773 120.5,129.5C 116.651,122.456 112.318,115.789 107.5,109.5C 107.5,105.167 107.5,100.833 107.5,96.5 Z"/></g>
<g><path style="opacity:0.97" fill="#2691ff" d="M 107.5,109.5 C 112.318,115.789 116.651,122.456 120.5,129.5C 116.265,130.436 111.931,130.769 107.5,130.5C 107.5,123.5 107.5,116.5 107.5,109.5 Z"/></g>
<g><path style="opacity:0.984" fill="#155fcf" d="M 46.5,139.5 C 46.5,140.167 46.5,140.833 46.5,141.5C 45.5318,143.607 45.1984,145.941 45.5,148.5C 44.5,148.5 43.5,148.5 42.5,148.5C 42.5,146.167 42.5,143.833 42.5,141.5C 41.325,141.719 40.325,141.386 39.5,140.5C 41.7427,139.526 44.076,139.192 46.5,139.5 Z"/></g>
<g><path style="opacity:0.998" fill="#0267e8" d="M 87.5,148.5 C 87.3949,143.34 86.7283,143.34 85.5,148.5C 84.5084,148.672 83.8417,148.338 83.5,147.5C 82.0067,143.588 81.3401,143.921 81.5,148.5C 79.6122,146.012 78.9455,143.012 79.5,139.5C 82.2919,139.452 84.1253,140.785 85,143.5C 85.1118,140.553 86.6118,139.22 89.5,139.5C 90.0545,143.012 89.3878,146.012 87.5,148.5 Z"/></g>
<g><path style="opacity:0.2" fill="#001530" d="M 103.5,139.5 C 104.477,142.287 104.81,145.287 104.5,148.5C 103.549,147.081 103.216,145.415 103.5,143.5C 103.672,142.508 103.338,141.842 102.5,141.5C 102.833,140.833 103.167,140.167 103.5,139.5 Z"/></g>
<g><path style="opacity:0.8" fill="#2251a7" d="M 136.5,143.5 C 136.5,144.5 136.5,145.5 136.5,146.5C 135.185,148.599 133.518,148.933 131.5,147.5C 131.5,145.833 131.5,144.167 131.5,142.5C 132.434,141.432 132.768,140.099 132.5,138.5C 133.5,138.5 134.5,138.5 135.5,138.5C 135.216,140.415 135.549,142.081 136.5,143.5 Z"/></g>
<g><path style="opacity:1" fill="#005dd2" d="M 120.5,148.5 C 120.425,145.794 120.092,143.127 119.5,140.5C 121.377,139.072 122.711,139.572 123.5,142C 122.264,143.856 122.264,145.689 123.5,147.5C 122.675,148.386 121.675,148.719 120.5,148.5 Z"/></g>
<g><path style="opacity:0.4" fill="#022758" d="M 46.5,139.5 C 47.9952,139.989 49.3285,140.655 50.5,141.5C 48.6565,143.279 47.9898,145.612 48.5,148.5C 47.8333,146.167 47.1667,143.833 46.5,141.5C 46.5,140.833 46.5,140.167 46.5,139.5 Z"/></g>
<g><path style="opacity:1" fill="#0061da" d="M 50.5,141.5 C 50.8333,141.5 51.1667,141.5 51.5,141.5C 52.3382,141.842 52.6716,142.508 52.5,143.5C 51.3088,145.327 49.9755,146.993 48.5,148.5C 47.9898,145.612 48.6565,143.279 50.5,141.5 Z"/></g>
<g><path style="opacity:0.592" fill="#033576" d="M 51.5,141.5 C 52.5676,140.566 53.901,140.232 55.5,140.5C 55.5,142.167 55.5,143.833 55.5,145.5C 54.71,144.391 54.21,143.058 54,141.5C 53.5045,143.473 53.3379,145.473 53.5,147.5C 52.5655,146.432 52.2322,145.099 52.5,143.5C 52.6716,142.508 52.3382,141.842 51.5,141.5 Z"/></g>
<g><path style="opacity:1" fill="#0362dc" d="M 55.5,145.5 C 57.1765,144.817 57.8432,143.483 57.5,141.5C 59.3435,143.279 60.0102,145.612 59.5,148.5C 57.2646,148.795 55.2646,148.461 53.5,147.5C 53.3379,145.473 53.5045,143.473 54,141.5C 54.21,143.058 54.71,144.391 55.5,145.5 Z"/></g>
<g><path style="opacity:0.4" fill="#012759" d="M 57.5,141.5 C 57.7352,140.903 58.2352,140.57 59,140.5C 60.0111,141.056 60.8444,141.722 61.5,142.5C 61.5,144.167 61.5,145.833 61.5,147.5C 60.8333,147.833 60.1667,148.167 59.5,148.5C 60.0102,145.612 59.3435,143.279 57.5,141.5 Z"/></g>
<g><path style="opacity:0.995" fill="#025ed4" d="M 92.5,141.5 C 94.1667,141.5 95.8333,141.5 97.5,141.5C 97.5,143.833 97.5,146.167 97.5,148.5C 95.2075,148.756 93.0408,148.423 91,147.5C 90.8333,146.5 90.6667,145.5 90.5,144.5C 90.6399,142.97 91.3065,141.97 92.5,141.5 Z M 93.5,143.5 C 95.7602,144.238 95.9269,145.238 94,146.5C 93.5172,145.552 93.3505,144.552 93.5,143.5 Z"/></g>
<g><path style="opacity:0.149" fill="#081d3b" d="M 92.5,141.5 C 95.5,140.167 98.5,140.167 101.5,141.5C 99.6565,143.279 98.9898,145.612 99.5,148.5C 98.8333,148.5 98.1667,148.5 97.5,148.5C 97.5,146.167 97.5,143.833 97.5,141.5C 95.8333,141.5 94.1667,141.5 92.5,141.5 Z"/></g>
<g><path style="opacity:1" fill="#407efc" d="M 101.5,141.5 C 101.833,141.5 102.167,141.5 102.5,141.5C 103.338,141.842 103.672,142.508 103.5,143.5C 102.515,145.506 101.182,147.173 99.5,148.5C 98.9898,145.612 99.6565,143.279 101.5,141.5 Z"/></g>
<g><path style="opacity:0.994" fill="#1161d6" d="M 103.5,139.5 C 104.209,138.596 105.209,138.263 106.5,138.5C 106.343,139.873 106.51,141.207 107,142.5C 107.383,141.944 107.883,141.611 108.5,141.5C 109.492,141.328 110.158,141.662 110.5,142.5C 109.323,144.103 109.489,145.436 111,146.5C 111.49,145.207 111.657,143.873 111.5,142.5C 113.249,140.469 115.249,140.135 117.5,141.5C 118.234,142.708 118.567,144.041 118.5,145.5C 117.127,145.343 115.793,145.51 114.5,146C 116.119,146.236 117.119,147.069 117.5,148.5C 113.114,148.026 108.781,148.026 104.5,148.5C 104.81,145.287 104.477,142.287 103.5,139.5 Z M 110.5,142.5 C 110.833,142.5 111.167,142.5 111.5,142.5C 111.657,143.873 111.49,145.207 111,146.5C 109.489,145.436 109.323,144.103 110.5,142.5 Z"/></g>
<g><path style="opacity:0.197" fill="#001d43" d="M 108.5,141.5 C 109.947,140.115 110.947,140.448 111.5,142.5C 111.167,142.5 110.833,142.5 110.5,142.5C 110.158,141.662 109.492,141.328 108.5,141.5 Z"/></g>
<g><path style="opacity:0.997" fill="#225abe" d="M 131.5,142.5 C 131.5,144.167 131.5,145.833 131.5,147.5C 130.432,148.434 129.099,148.768 127.5,148.5C 127.5,149.833 127.5,151.167 127.5,152.5C 126.5,152.5 125.5,152.5 124.5,152.5C 124.5,148.5 124.5,144.5 124.5,140.5C 126.527,140.338 128.527,140.505 130.5,141C 131.056,141.383 131.389,141.883 131.5,142.5 Z M 127.5,143.5 C 128.289,143.783 128.956,144.283 129.5,145C 128.184,145.528 127.517,145.028 127.5,143.5 Z"/></g>
<g><path style="opacity:0.991" fill="#035bcd" d="M 141.5,141.5 C 143.344,143.279 144.01,145.612 143.5,148.5C 140.612,149.01 138.279,148.344 136.5,146.5C 136.5,145.5 136.5,144.5 136.5,143.5C 137.425,140.869 139.091,140.202 141.5,141.5 Z M 139.5,143.5 C 141.76,144.238 141.927,145.238 140,146.5C 139.517,145.552 139.351,144.552 139.5,143.5 Z"/></g>
<g><path style="opacity:0.195" fill="#011631" d="M 141.5,141.5 C 141.735,140.903 142.235,140.57 143,140.5C 144.011,141.056 144.844,141.722 145.5,142.5C 144.167,144.167 144.167,145.833 145.5,147.5C 144.833,147.833 144.167,148.167 143.5,148.5C 144.01,145.612 143.344,143.279 141.5,141.5 Z"/></g>
<g><path style="opacity:0.988" fill="#025bcc" d="M 150.5,141.5 C 150.5,142.833 149.833,143.5 148.5,143.5C 147.662,143.842 147.328,144.508 147.5,145.5C 148.9,146.1 149.9,147.1 150.5,148.5C 148.585,148.784 146.919,148.451 145.5,147.5C 144.167,145.833 144.167,144.167 145.5,142.5C 146.748,140.31 148.414,139.977 150.5,141.5 Z"/></g>
<g><path style="opacity:1" fill="#045dd0" d="M 67.5,142.5 C 66.791,143.404 65.791,143.737 64.5,143.5C 63.6618,143.842 63.3284,144.508 63.5,145.5C 64.8333,146.167 66.1667,146.833 67.5,147.5C 65.5,148.833 63.5,148.833 61.5,147.5C 61.5,145.833 61.5,144.167 61.5,142.5C 63.406,140.006 65.406,140.006 67.5,142.5 Z"/></g>
<g><path style="opacity:0.995" fill="#075dd0" d="M 74.5,142.5 C 74.5,143.5 74.5,144.5 74.5,145.5C 73.1266,145.343 71.7932,145.51 70.5,146C 72.0581,146.21 73.3915,146.71 74.5,147.5C 72.5,148.833 70.5,148.833 68.5,147.5C 68.5,145.833 68.5,144.167 68.5,142.5C 70.5,139.833 72.5,139.833 74.5,142.5 Z"/></g>
<g><path style="opacity:0.995" fill="#2563d2" d="M 152.5,147.5 C 152.5,145.833 152.5,144.167 152.5,142.5C 154.139,140.058 156.139,139.891 158.5,142C 159.767,143.796 159.767,145.629 158.5,147.5C 156.364,148.793 154.364,148.793 152.5,147.5 Z"/></g>
<g><path style="opacity:0.552" fill="#09306c" d="M 150.5,141.5 C 151.167,141.833 151.833,142.167 152.5,142.5C 152.5,144.167 152.5,145.833 152.5,147.5C 151.833,147.833 151.167,148.167 150.5,148.5C 149.9,147.1 148.9,146.1 147.5,145.5C 148.873,145.657 150.207,145.49 151.5,145C 150.263,144.768 149.263,144.268 148.5,143.5C 149.833,143.5 150.5,142.833 150.5,141.5 Z"/></g>
<g><path style="opacity:0.549" fill="#072f68" d="M 67.5,142.5 C 67.8333,142.5 68.1667,142.5 68.5,142.5C 68.5,144.167 68.5,145.833 68.5,147.5C 68.1667,147.5 67.8333,147.5 67.5,147.5C 66.1667,146.833 64.8333,146.167 63.5,145.5C 64.8734,145.657 66.2068,145.49 67.5,145C 66.2625,144.768 65.2625,144.268 64.5,143.5C 65.791,143.737 66.791,143.404 67.5,142.5 Z"/></g>
<g><path style="opacity:0.447" fill="#04326f" d="M 74.5,142.5 C 75.8333,144.167 75.8333,145.833 74.5,147.5C 73.3915,146.71 72.0581,146.21 70.5,146C 71.7932,145.51 73.1266,145.343 74.5,145.5C 74.5,144.5 74.5,143.5 74.5,142.5 Z"/></g>
<g><path style="opacity:0.2" fill="#001b3d" d="M 83.5,147.5 C 82.8333,147.833 82.1667,148.167 81.5,148.5C 81.3401,143.921 82.0067,143.588 83.5,147.5 Z"/></g>
<g><path style="opacity:0.149" fill="#021e43" d="M 87.5,148.5 C 86.8333,148.5 86.1667,148.5 85.5,148.5C 86.7283,143.34 87.3949,143.34 87.5,148.5 Z"/></g>
<g><path style="opacity:0.441" fill="#0b2b5e" d="M 119.5,140.5 C 120.092,143.127 120.425,145.794 120.5,148.5C 119.778,148.082 119.278,147.416 119,146.5C 118.722,147.416 118.222,148.082 117.5,148.5C 117.119,147.069 116.119,146.236 114.5,146C 115.793,145.51 117.127,145.343 118.5,145.5C 118.567,144.041 118.234,142.708 117.5,141.5C 118.167,141.167 118.833,140.833 119.5,140.5 Z"/></g>
</svg>
